<svg width="21" height="20" viewBox="0 0 21 20" fill="none" xmlns="http://www.w3.org/2000/svg">
<path fill-rule="evenodd" clip-rule="evenodd" d="M6.72888 0H14.2289C17.6801 0 20.4789 2.79875 20.4789 6.25V13.75C20.4789 17.2013 17.6801 20 14.2289 20H6.72888C3.27763 20 0.478882 17.2013 0.478882 13.75V6.25C0.478882 2.79875 3.27763 0 6.72888 0ZM14.2289 18.125C16.6414 18.125 18.6039 16.1625 18.6039 13.75V6.25C18.6039 3.8375 16.6414 1.875 14.2289 1.875H6.72888C4.31638 1.875 2.35388 3.8375 2.35388 6.25V13.75C2.35388 16.1625 4.31638 18.125 6.72888 18.125H14.2289Z" fill="#0A0A0A"/>
<path fill-rule="evenodd" clip-rule="evenodd" d="M5.47888 10C5.47888 7.23875 7.71763 5 10.4789 5C13.2401 5 15.4789 7.23875 15.4789 10C15.4789 12.7613 13.2401 15 10.4789 15C7.71763 15 5.47888 12.7613 5.47888 10ZM7.35388 10C7.35388 11.7225 8.75638 13.125 10.4789 13.125C12.2014 13.125 13.6039 11.7225 13.6039 10C13.6039 8.27625 12.2014 6.875 10.4789 6.875C8.75638 6.875 7.35388 8.27625 7.35388 10Z" fill="#0A0A0A"/>
<circle cx="15.8539" cy="4.62523" r="0.66625" fill="#0A0A0A"/>
</svg>
