<svg width="25" height="24" viewBox="0 0 25 24" fill="none" xmlns="http://www.w3.org/2000/svg">
<path d="M5.46193 7.19704C6.67032 7.19704 7.64993 6.21744 7.64993 5.00904C7.64993 3.80065 6.67032 2.82104 5.46193 2.82104C4.25353 2.82104 3.27393 3.80065 3.27393 5.00904C3.27393 6.21744 4.25353 7.19704 5.46193 7.19704Z" fill="black"/>
<path d="M9.71585 8.85505V20.9941H13.4849V14.9911C13.4849 13.4071 13.7829 11.8731 15.7469 11.8731C17.6839 11.8731 17.7079 13.6841 17.7079 15.0911V20.9951H21.4789V14.3381C21.4789 11.0681 20.7749 8.55505 16.9529 8.55505C15.1179 8.55505 13.8879 9.56205 13.3849 10.5151H13.3339V8.85505H9.71585ZM3.57385 8.85505H7.34885V20.9941H3.57385V8.85505Z" fill="black"/>
</svg>
