<svg width="21" height="16" viewBox="0 0 21 16" fill="none" xmlns="http://www.w3.org/2000/svg">
<path d="M20.4789 1.93654C19.7517 2.25554 18.9768 2.46699 18.1689 2.56965C19 2.07343 19.6343 1.29365 19.9326 0.353764C19.1577 0.815764 18.3021 1.1421 17.3903 1.32421C16.6546 0.540764 15.6059 0.055542 14.4619 0.055542C12.2423 0.055542 10.4555 1.8571 10.4555 4.06565C10.4555 4.38343 10.4823 4.68899 10.5483 4.97988C7.21534 4.81732 4.26612 3.21988 2.2849 0.786431C1.93901 1.38654 1.73612 2.07343 1.73612 2.81288C1.73612 4.20132 2.45112 5.4321 3.5169 6.14465C2.87278 6.13243 2.2409 5.94543 1.70556 5.65088C1.70556 5.6631 1.70556 5.67899 1.70556 5.69488C1.70556 7.6431 3.09523 9.26132 4.91756 9.6341C4.59123 9.72332 4.23556 9.7661 3.86645 9.7661C3.60978 9.7661 3.35067 9.75143 3.10745 9.69765C3.6269 11.2853 5.10089 12.4525 6.85356 12.4904C5.48956 13.5574 3.75767 14.2003 1.88278 14.2003C1.55401 14.2003 1.23867 14.1857 0.92334 14.1453C2.69923 15.2905 4.8039 15.9444 7.07356 15.9444C14.4509 15.9444 18.4842 9.83332 18.4842 4.53621C18.4842 4.35899 18.4781 4.18788 18.4696 4.01799C19.2652 3.45332 19.9338 2.7481 20.4789 1.93654Z" fill="#0A0A0A"/>
</svg>
